<?xml version="1.0" encoding="utf-8"?>
<svg xmlns="http://www.w3.org/2000/svg" xmlns:xlink="http://www.w3.org/1999/xlink" version= "1.1" width="1280px" height="1280px" viewBox="-100 518 1280 1280">
<g id="layer1" opacity="0.0">
<g style="fill:rgb(0,0,0); fill-opacity:1.0; stroke-linejoin: miter">
<path d="M172.89552,880.6383L412.55835,881.263L412.55835,881.264L210.38562,1053.8451C209.91438,1054.2473,209.74419,1054.9009,209.95937,1055.4819C210.17407,1056.0616,210.72693,1056.4463,211.34486,1056.4463C211.34622,1056.4463,211.3476,1056.4463,211.34897,1056.4463L897.6663,1054.5452L897.6663,1054.5461L888.81354,1115.0115L888.81354,1115.0125L718.8645,1118.4222C718.4208,1118.4312,718.0045,1118.639,717.7309,1118.9885L571.0649,1306.2825L571.0594,1306.2834C536.822,1343.8629,502.6932,1381.3104,469.65167,1407.543C436.63144,1433.7585,404.69742,1448.7653,372.77234,1457.0068C341.59192,1465.0562,310.38596,1466.6661,279.01352,1468.1226L279.01352,1468.1235L341.81158,1321.3259C342.095,1320.6633,341.85913,1319.8931,341.25333,1319.5028C313.12634,1301.3834,285.10916,1283.3317,256.38513,1256.8763C227.70932,1230.4653,198.38116,1195.7308,184.3548,1131.5692C170.36333,1067.5671,171.58282,974.3137,172.8938,880.6383 Z M171.43678,877.67957C170.62918,877.67957,169.97092,878.32837,169.9596,879.13635C168.64328,973.158,167.31387,1067.4542,181.46802,1132.2003C195.65984,1197.1188,225.40314,1232.3586,254.38326,1259.0499C282.95834,1285.3682,310.83682,1303.4224,338.60663,1321.3129L338.60324,1321.3138L275.37012,1469.1265C275.17007,1469.5941,275.2246,1470.1316,275.51447,1470.5496C275.79126,1470.9487,276.24548,1471.185,276.72824,1471.185C276.75107,1471.185,276.77393,1471.1846,276.79684,1471.1835C308.91714,1469.6965,341.20724,1468.2073,373.51093,1459.8679C405.84546,1451.5206,438.15155,1436.3246,471.489,1409.8572C504.78128,1383.4257,539.10516,1345.7444,573.3203,1308.1884L573.3914,1308.1042L719.625,1121.3625L719.625,1121.3635L890.12384,1117.9407C890.84576,1117.9261,891.4515,1117.392,891.5561,1116.6775L900.8385,1053.277C900.90076,1052.8516,900.77466,1052.4202,900.4931,1052.0953C900.21246,1051.7716,899.8051,1051.5856,899.3767,1051.5856C899.3753,1051.5856,899.3739,1051.5856,899.3725,1051.5856L215.36438,1053.4803L215.36438,1053.4813L417.51187,880.9196C417.982,880.5183,418.1526,879.8667,417.93948,879.2865C417.72638,878.7063,417.1746,878.32,416.55646,878.3184L171.44077,877.67957C171.43944,877.67957,171.43811,877.67957,171.43678,877.67957 Z"/>
</g>
<g style="fill:rgb(0,0,0); fill-opacity:1.0; stroke-linejoin: miter">
<path d="M880.7288,1139.6141C872.6119,1160.2943,864.3674,1180.9355,849.7657,1203.7207C834.77026,1227.1201,813.06287,1252.7893,790.49115,1272.5587C767.9386,1292.3115,744.51605,1306.1791,719.3961,1316.4535C694.2631,1326.7334,667.429,1333.4177,643.60583,1336.5829L643.6058,1336.5839C629.29895,1338.4838,616.0637,1339.1167,603.25085,1339.2422C601.48785,1339.2594,599.73083,1339.2671,597.97876,1339.2671C592.07196,1339.2671,586.222,1339.1803,580.3931,1339.0833L580.3873,1339.0842L730.9712,1141.1648L730.9712,1141.1658L880.72,1139.6141 Z M882.461,1137.2439C882.45685,1137.2439,882.45264,1137.244,882.4485,1137.244L730.37164,1138.8188C730.00867,1138.8226,729.6678,1138.9938,729.448,1139.2827L577.10913,1339.5078C576.8407,1339.8607,576.7934,1340.3345,576.98694,1340.7333C577.1805,1341.1322,577.58185,1341.3882,578.0251,1341.3956C584.62506,1341.5072,591.25977,1341.6191,597.97986,1341.6191C599.7384,1341.6191,601.50275,1341.6115,603.27386,1341.5941C616.14734,1341.468,629.4891,1340.8313,643.9156,1338.9143L643.9155,1338.9153C667.92365,1335.7246,694.954,1328.9917,720.2866,1318.6304C745.63153,1308.2637,769.28033,1294.2628,792.0408,1274.328C814.78375,1254.4086,836.63513,1228.569,851.746,1204.9897C866.8676,1181.3931,875.2304,1160.07,883.5554,1138.8494C883.6983,1138.4855,883.6508,1138.0742,883.42883,1137.7523C883.2093,1137.4341,882.8473,1137.2439,882.461,1137.2439 Z"/>
</g>
<g style="fill:rgb(0,0,0); fill-opacity:1.0; stroke-linejoin: miter">
<path d="M594.77936,1098.6129C594.0524,1098.6129,593.32056,1098.6373,592.5846,1098.6869C574.8535,1099.8811,561.448,1115.2235,562.6423,1132.9543C563.7871,1149.9495,577.9293,1162.9707,594.7149,1162.9707C595.44183,1162.9707,596.1737,1162.9463,596.90967,1162.8967C608.9264,1162.0873,618.9563,1154.78,623.8014,1144.6349L623.79517,1144.6359Q621.93286,1145.3002,619.91473,1145.6383L619.92096,1145.6393C615.1835,1153.6548,606.7036,1159.2754,596.71106,1159.9485C596.04266,1159.9935,595.378,1160.0157,594.7178,1160.0157C579.4738,1160.0157,566.6301,1148.19,565.5905,1132.7559C564.5059,1116.6532,576.6804,1102.7197,592.7832,1101.6351C593.4516,1101.5901,594.1163,1101.5679,594.7764,1101.5679C598.4138,1101.5679,601.9146,1102.2412,605.15094,1103.4762L605.15094,1103.4772Q606.9228,1102.5231,608.89453,1101.8881L608.9006,1101.889C604.6184,1099.7861,599.81793,1098.6129,594.77936,1098.6129 Z"/>
</g>
<g style="fill:rgb(0,0,0); fill-opacity:1.0; stroke-linejoin: miter">
<path d="M615.74445,1100.7456L617.64215,1100.8126Q626.955,1101.4235,633.50116,1108.9669Q635.9697,1111.946,637.27625,1115.6548Q637.9297,1117.5094,638.29254,1119.5461Q638.71326,1121.1299,638.6122,1124.7085Q638.44464,1126.7911,637.9843,1128.7123Q637.93713,1129.7738,635.94434,1134.1116Q634.1451,1137.4686,631.17456,1140.1788Q629.74896,1141.4696,628.1868,1142.4736L626.59045,1143.406Q624.95984,1144.2666,623.1926,1144.8402Q620.11755,1145.9949,614.6583,1145.9734Q610.49286,1145.6383,606.97424,1144.132Q605.2149,1143.3788,603.61725,1142.3326Q599.7645,1139.4613,599.18805,1138.5356Q593.0916,1131.3136,593.39154,1122.9968Q593.48627,1118.86,594.84076,1115.267Q595.5179,1113.4703,596.5101,1111.8098Q596.8259,1110.8752,600.162,1107.1725Q602.9585,1104.4135,606.4849,1102.8165Q608.24805,1102.018,610.1938,1101.5099Q615.5659,1100.4404,615.74445,1100.7456 M170.952,879.2954L172.18304,1051.5867Q182.49922,1139.182,189.6695,1159.7583Q194.86682,1178.4313,202.03459,1191.8684L211.06311,1206.9066Q240.69452,1245.3785,252.26883,1253.7742Q286.79938,1285.8955,340.15674,1320.3545L277.4876,1469.7505Q316.0907,1470.229,369.1411,1459.425L410.83374,1446.0063Q439.99918,1430.8853,449.46124,1424.0287Q466.75165,1413.8435,512.97375,1370.9092L573.1046,1306.6033L718.87805,1119.5398L889.65283,1115.8202L898.1073,1053.0424L211.73822,1055.1913L415.57013,880.499L170.952,879.2954 Z"/>
</g>
<g style="fill:rgb(0,0,0); fill-opacity:1.0; stroke-linejoin: miter">
<path d="M578.5998,1340.0657L730.777,1139.6099L881.9479,1139.1785L866.9912,1175.7294L842.07336,1217.5302Q810.23236,1258.7761,789.5104,1275.4456Q763.3368,1296.7957,733.33923,1310.5785Q702.13025,1325.8026,659.4498,1334.4595Q630.64954,1340.2709,578.5998,1340.0657"/>
</g>
<g style="fill:rgb(0,0,0); fill-opacity:1.0; stroke-linejoin: miter">
</g>
</g>
<g id="layer2">
<g style="fill:rgb(254,0,69); fill-opacity:1.0; stroke-linejoin: miter">
<path d="M1158.3074,1142.708L1154.6475,1226.6843Q1120.532,1481.0111,929.55133,1637.5225Q737.22125,1793.9434,471.05133,1771.5264Q216.72562,1737.4114,60.21513,1546.4296Q10.054472,1484.6854,-23.209175,1411.2625L-51.495155,1335.638Q-75.18005,1257.453,-77.44654,1171.9017Q-77.02283,909.1841,93.20547,730.7179Q263.4339,552.25165,525.83594,539.4239Q788.55133,539.8469,967.0159,710.0758Q1145.4796,880.30426,1158.3074,1142.708"/>
</g>
</g>
<g id="layer3">
<g style="fill:rgb(254,254,254); fill-opacity:1.0; stroke-linejoin: miter">
<path d="M331.56543,1415.4728L282.2054,1524.5844Q300.40375,1541.7563,312.6149,1547.0862Q319.51724,1550.1387,326.5728,1549.7434Q330.10233,1549.5063,333.68073,1548.1707L337.27307,1546.521Q342.06003,1543.8927,346.93726,1539.2362L351.83298,1534.1647Q356.7488,1528.6323,361.7304,1521.6248Q374.1683,1504.4745,397.06107,1462.2446L331.56543,1415.4728"/>
</g>
<g style="fill:rgb(254,254,254); fill-opacity:1.0; stroke-linejoin: miter">
<path d="M971.6969,423.9491L971.697,423.95032L971.69714,423.95154L971.6969,423.9491"/>
</g>
<g style="fill:rgb(254,254,254); fill-opacity:1.0; stroke-linejoin: miter">
<path d="M622.32874,861.58765L692.491,758.8718Q717.55493,765.7464,728.8782,773.7032Q735.3139,778.1794,738.7732,784.6533Q740.4688,787.9131,741.2158,791.80945L741.69196,795.8879Q741.94476,801.5547,740.44653,808.39685L738.5899,815.47943Q736.33545,822.82886,732.80743,831.03326Q724.3057,851.3306,699.1957,894.44727L622.32874,861.58765"/>
</g>
<g>
<g style="fill:rgb(0,0,0); fill-opacity:1.0; stroke-linejoin: miter">
</g>
<g style="fill:rgb(0,0,0); fill-opacity:1.0; stroke-linejoin: miter">
</g>
<g style="fill:rgb(0,0,0); fill-opacity:1.0; stroke-linejoin: miter">
</g>
<g style="fill:rgb(0,0,0); fill-opacity:1.0; stroke-linejoin: miter">
</g>
</g>
<g>
<g style="fill:rgb(254,254,254); fill-opacity:1.0; stroke-linejoin: miter">
<path d="M755.17303,863.1797Q644.1,828.1495,525.2098,850.5449Q406.45352,872.5146,378.53683,961.0328Q364.04166,1006.99426,382.80624,1058.766Q401.27942,1109.9781,525.76495,1197.4313Q626.12366,1267.9172,648.68536,1292.8129Q670.9556,1317.1486,665.4528,1334.5967Q652.5681,1375.4513,547.45013,1394.2358Q442.46643,1412.595,362.03406,1387.2284Q317.34943,1373.1361,277.18213,1341.7524Q269.18472,1335.9548,260.67334,1333.2706Q252.58754,1330.7206,238.59631,1346.8955Q225.16484,1362.779,221.13838,1375.5461Q215.36714,1393.8458,238.28584,1414.6427Q260.91302,1434.8796,312.40677,1451.1194Q374.11414,1470.5806,471.4904,1470.4095Q568.44086,1470.1041,648.04443,1435.7866Q727.5137,1401.8944,742.1431,1355.5077Q756.6383,1309.5466,721.86304,1262.5513Q687.3787,1216.1158,591.076,1152.0555Q491.77127,1085.6448,467.4581,1048.4998Q443.43625,1011.91394,454.71027,976.16626Q470.4134,926.37494,555.3107,913.8464Q639.6484,901.6091,729.8685,930.06256Q773.7019,943.8867,799.0396,965.91473Q824.51135,987.5171,806.6609,1044.1174Q842.834,1055.5256,860.49475,1030.6824Q878.15564,1005.8389,882.719,991.3696Q892.2483,961.15436,860.5893,923.56384Q828.79614,886.3989,755.17303,863.1797 Z"/>
</g>
</g>
</g>
</svg>